/* XPM */
static char *kuma[] = {
/* columns rows colors chars-per-pixel */
"64 64 194 2 ",
"   c #5A4022",
".  c #755939",
"X  c #204F56",
"o  c #316A7B",
"O  c #635D4A",
"+  c #7B6548",
"@  c #606659",
"#  c #567477",
"$  c #536C6B",
"%  c #60706A",
"&  c #6B7C77",
"*  c #637774",
"=  c #747465",
"-  c #876D50",
";  c #8F785E",
":  c #927658",
">  c #836A4D",
",  c #927C62",
"<  c #817963",
"1  c #8F826C",
"2  c #898677",
"3  c #968A76",
"4  c #988A76",
"5  c #9D917E",
"6  c #99856D",
"7  c #A58160",
"8  c #A38D76",
"9  c #A3917B",
"0  c #AB9278",
"q  c #0F729A",
"w  c #19769B",
"e  c #166C8C",
"r  c #37778C",
"t  c #327A94",
"y  c #0077AF",
"u  c #0D7DAE",
"i  c #1A7CA4",
"p  c #157CA8",
"a  c #0079B5",
"s  c #007EBD",
"d  c #097EB2",
"f  c #587D83",
"g  c #437684",
"h  c #627F81",
"j  c #1680AE",
"k  c #0981B7",
"l  c #1883B1",
"z  c #2884AA",
"x  c #4E808F",
"c  c #598793",
"v  c #5B8087",
"b  c #7C8984",
"n  c #0087C8",
"m  c #0083C0",
"M  c #008BD2",
"N  c #0892D4",
"B  c #0094E4",
"V  c #009CEC",
"C  c #009BE7",
"Z  c #009DF3",
"A  c #009CFA",
"S  c #00A1F3",
"D  c #00A5FE",
"F  c #01AAFE",
"G  c #0DAEFF",
"H  c #01B2FF",
"J  c #00B9FF",
"K  c #12B9FF",
"L  c #1EB8FF",
"P  c #18B2FE",
"I  c #2DBAFF",
"U  c #2CB7FB",
"Y  c #3BBEFE",
"T  c #4EA9D1",
"R  c #4CCCFF",
"E  c #49C4FE",
"W  c #58C8FD",
"Q  c #64CCFD",
"!  c #62D3FF",
"~  c #6BD0FE",
"^  c #7CD6FE",
"/  c #959181",
"(  c #9C9482",
")  c #9B9B8C",
"_  c #93968B",
"`  c #959C94",
"'  c #848A81",
"]  c #A39682",
"[  c #A99A86",
"{  c #A49C8B",
"}  c #AC9D8B",
"|  c #B09F8B",
" . c #9EA296",
".. c #ADA08F",
"X. c #B4A28F",
"o. c #A3A295",
"O. c #ABA393",
"+. c #A0A69B",
"@. c #ACA698",
"#. c #AEA99C",
"$. c #B4A593",
"%. c #BCAC9A",
"&. c #B1AC9F",
"*. c #9CA9A6",
"=. c #A4ADA6",
"-. c #A6B3AC",
";. c #B4B1A4",
":. c #BAB9AF",
">. c #BBB4A6",
",. c #A9B9B3",
"<. c #BBBCB3",
"1. c #C6AC95",
"2. c #C1A58C",
"3. c #C0B3A4",
"4. c #CABAA9",
"5. c #D2BDAB",
"6. c #CCBEB0",
"7. c #D7C1AF",
"8. c #C1C3BB",
"9. c #CDC2B5",
"0. c #D3C3B4",
"q. c #D2C6B9",
"w. c #DECBBB",
"e. c #D3C9BE",
"r. c #E0CEBF",
"t. c #B8D2D4",
"y. c #BCD7DA",
"u. c #8BDBFF",
"i. c #83D7FE",
"p. c #95DFFF",
"a. c #A1DFFC",
"s. c #86E1FF",
"d. c #8EE3FF",
"f. c #97E0FF",
"g. c #9CE1FE",
"h. c #A2E4FF",
"j. c #ADEAFF",
"k. c #ADE4FD",
"l. c #B0E6FF",
"z. c #B4E9FF",
"x. c #BBECFE",
"c. c #BFF2FF",
"v. c #C6CAC4",
"b. c #D6CEC4",
"n. c #D9CEC4",
"m. c #CCD2CE",
"M. c #DCD3CA",
"N. c #CED4D0",
"B. c #D2D9D6",
"V. c #D4DDDB",
"C. c #D6D8D3",
"Z. c #E1CFC0",
"A. c #EAD4C4",
"S. c #E5D7CC",
"D. c #E2DAD3",
"F. c #EADDD2",
"G. c #E4DFD9",
"H. c #E7E2DC",
"J. c #EAE3DC",
"K. c #F6E5D9",
"L. c #C0DDE2",
"P. c #C2E1E6",
"I. c #C6E6ED",
"U. c #DBE5E5",
"Y. c #DAE8EB",
"T. c #C9ECF4",
"R. c #C3EEFE",
"E. c #CBEFFE",
"W. c #DCEDF1",
"Q. c #C4F2FF",
"!. c #CDF3FE",
"~. c #C9F8FF",
"^. c #D1F5FF",
"/. c #DBF5FE",
"(. c #D5FBFF",
"). c #DBFCFF",
"_. c #EFE9E3",
"`. c #EFEDE9",
"'. c #E6EAE8",
"]. c #F1EDE9",
"[. c #F6ECE5",
"{. c #F6F3EF",
"}. c #FFF5EC",
"|. c #E1EEF0",
" X c #E4F2F5",
".X c #E5F6FB",
"XX c #E8F7FB",
"oX c #E5F9FF",
"OX c #EAFAFF",
"+X c #F5F5F4",
"@X c #F9F6F3",
"#X c #FFFBF5",
"$X c #F3FEFF",
"%X c #FEFFFE",
/* pixels */
"^.^.^.^.^.^.^.^.^.^.^.^.^.^.^.^.^.^.^.^.^.^.^.^.^.^.^.^.^.^.^.^.^.^.^.^.^.^.^.^.^.^.^.^.^.^.^.^.^.^.^.^.^.^.^.^.^.^.^.^.^.^.^.^.",
"^.^.^.^.^.^.^.^.^.^.^.^.^.^.^.^.^.^.^.^.^.^.^.^.^.^.^.^.^.^.^.^.^.^.^.^.^.^.^.^.^.^.^.^.^.^.^.^.^.^.^.^.^.^.^.^.^.^.^.^.^.^.^.^.",
"^.^.^.^.^.^.^.^.^.^.!.^.^.^.^.^.^.^.^.^.^.^.^.^.^.^.^.^.^.^.^.^.^.^.^.^.^.^.^.^.^.^.^.^.^.^.^.^.^.^.^.^.^.^.^.^.^.^.^.^.^.^.^.^.",
"^.^.^.^.^.^.^.^.^.^.^.^.^.^.^.^.^.^.^.^.^.^.^.^.^.^.^.^.^.^.^.^.^.^.^.^.^.^.^.^.^.^.^.^.^.^.^.^.^.^.^.^.^.^.^.^.^.^.^.^.^.^.^.^.",
"^.^.^.^.^.^.^.^.^.^.^.^.^.^.^.^.^.^.^.^.^.^.^.^.^.^.^.^.^.^.^.^.^.^.^.^.^.^.^.^.^.^.^.^.^.^.^.^.^.^.^.^.!.^.^.^.^.^.^.^.^.^.^.^.",
"^.^.^.^.^.^.^.^.^.^.^.^.^.^.^.^.^.^.^.^.^.^.^.^.^.^.^.^.^.^.^.^.^.^.^.^.^.^.^.^.^.^.^.^.^.^.^.^.^.^.^.^.^.^.^.^.^.^.^.^.^.^.^.^.",
"^.^.^.^.^.^.^.^.^.^.^.^.^.^.^.^.^.^.^.^.^.^.!.^.^.^.^.^.^.^.^.^.^.^.^.^.^.^.^.^.^.^.^.^.^.^.^.^.^.^.^.^.^.^.^.^.^.^.^.^.^.^.^.^.",
"^.^.^.^.^.^.^.^.^.^.^.^.^.^.^.^.^.^.^.^.^.^.^.^.^.^.^.^.^.^.!.^.^.^.^.^.^.^.^.^.^.^.^.^.^.^.^.^.^.^.^.^.^.^.^.^.^.^.^.^.^.^.^.^.",
"^.^.^.^.^.^.^.^.^.^.^.^.^.^.^.^.^.^.^.^.^.^.^.^.^.^.^.^.^.^.^.^.^.^.^.^.^.^.^.^.^.^.^.^.^.^.^.^.^.^.^.^.^.^.^.^.^.^.^.^.^.^.^.^.",
"^.^.^.^.^.^.^.^.^.^.^.^.^.^.^.^.^.^.^.^.^.^.^.^.^.^.^.^.^.^.^.^.^.^.^.^.^.^.^.^.^.^.^.^.^.^.^.^.^.^.^.^.^.^.^.^.^.^.^.^.^.^.^.^.",
"^.^.^.^.^.^.^.^.^.^.^.^.^.^.^.^.^.^.^.^.^.^.^.^.^.^.^.^.^.^.^.^.^.^.^.^.^.^.^.^.^.^.^.^.^.^.^.^.!.^.^.^.^.^.^.^.^.^.^.^.^.^.^.^.",
"^.^.^.^.^.^.^.^.^.^.^.^.^.^.^.^.^.^.^.^.^.^.^.^.^.^.^.^.^.^.^.^.^.^.^.^.^.^.^.^.^.^.^.^.^.^.^.^.^.^.^.^.^.^.^.^.^.!.^.^.^.^.^.^.",
"^.^.^.^.^.^.^.^.^.^.^.^.^.^.^.^.^.^.^.^.^.^.^.^.^.^.^.^.^.^.^.^.!.^.^.^.^.).^.^.^.^.^.^.^.^.^.^.^.^.^.^.^.^.^.^.^.^.^.^.^.^.^.^.",
"^.^.^.^.^.^.^.^.^.^.^.^.^.^.^.^.^.^.^.^.^.^.^.^.^.^.^.^.^.^.^.^.^.^.^.).Q.d.!.^.^.^.^.^.^.^.^.^.^.^.^.^.^.^.^.^.^.^.^.^.^.^.^.^.",
"^.^.^.^.^.^.^.^.^.^.^.^.!.^.^.^.^.^.^.^.^.^.^.^.^.^.^.^.^.^.^.^.^.^.^.g.~ E Q.^.!.!.^.^.^.^.^.^.^.^.^.^.^.^.^.^.^.^.^.^.^.^.^.^.",
"^.^.^.^.^.^.^.^.^.^.^.^.^.^.^.^.^.^.^.^.^.^.^.^.^.^.^.^.^.^.^.^.^.^.!.j.^ ^ oX!.).).^.^.^.^.).u.h.).!.^.^.^.^.^.^.^.^.^.^.^.^.^.",
"^.^.^.^.^.^.!.^.^.^.^.^.^.^.^.^.^.^.^.^.^.^.^.^.^.^.^.^.^.^.^.^.^.!.).c.R ~ ^.!.c.h.Q.).f.h.OXf.^ oX!.^.^.^.^.^.^.^.^.^.^.^.^.^.",
"^.^.^.^.^.^.^.^.^.^.^.^.^.^.^.^.^.^.^.^.^.^.^.^.^.^.^.^.^.^.^.^.^.^.^.Q.W W oXc.~ ^ Q.oXf.Y !.^.Q.^.!.^.^.^.^.^.^.^.^.^.^.^.^.^.",
"^.^.^.^.^.^.^.^.^.^.^.^.^.^.^.^.^.^.^.^.^.^.^.^.^.^.^.^.^.^.^.^.^.^.!.oXf.^ oX!.^.oX^.^.^.z.!.^.^.^.^.^.^.^.^.^.^.^.^.^.^.^.^.^.",
"^.^.^.^.^.^.^.^.^.^.^.^.^.^.^.^.^.^.^.^.^.^.^.^.^.^.^.^.^.^.^.^.^.^.^.^.x.Q.^.^.!.!.^.^.^.^.^.^.^.^.^.^.^.^.^.^.^.^.^.^.^.^.^.^.",
"^.^.^.^.^.^.^.^.^.^.^.^.^.^.^.^.^.^.^.^.^.^.^.^.^.^.^.^.^.^.^.^.!.^.^.).).).).^.).^.^.^.^.!.^.^.^.^.^.^.^.^.^.^.^.^.^.^.^.^.^.^.",
"^.^.^.^.^.^.^.^.^.^.^.^.^.^.^.^.^.^.!.^.^.^.^.^.P.!.^.^.^.!.^.^.).^.T.t.-. .) )  .t.).^.^.^.^.^.^.^.^.^.^.^.^.^.^.^.^.^.^.^.^.^.",
"^.^.^.^.^.^.^.^.^.^.^.^.^.^.!.P.^.).).^.T.!.).o.9 3 B.^.^.).^.y.-.( 5 $.6.M.H.H.n.} / T.).^.^.^.^.^.^.^.^.^.^.^.^.^.^.^.^.^.^.^.",
"^.^.^.^.^.^.^.^.^.^.^.^.^.!.( 9 ) y. .( ( ( ) [ %XH./ ).P.-.5 } q._.%X%X%X%X%X%X%X%XD.1 P.^.!.^.^.^.^.^.^.^.^.^.^.^.^.^.^.^.^.^.",
"^.^.^.^.^.^.^.^.^.^.^.^.).,.1.%X9.6 D.{.%X@X0.H.%XX.<  .9 6.@X%X%X%X%X%X%X%X%X%X%X%X%XH.1 ^.^.^.^.^.^.^.^.^.^.^.^.^.^.^.^.^.^.^.",
"^.^.^.^.^.^.^.^.^.^.^.^.^.P...n.%X%X%X%X%X%X%X%X].. 1.H.%X%X%X%X%X%X%X%X%X%X%X%X%X%X%X%X1.,.).^.^.^.^.^.^.^.^.^.^.!.!.!.!.!.!.!.",
"^.^.^.^.^.^.^.^.^.^.^.^.^.).` 9 %X@X%X%X%X%X%X%X%X$.'.%X%X%X%X%X%X%X%X%X%X%X%X%X%X%X%X%XH.` ).!.^.!.!.!.!.!.!.E.!.!.^././.).oXoX",
"^.^.^.^.^.^.^.^.^.^.^.^.^.I.9 %X%X%X%X%X%X%X%X%X%XM.D.%X%X%X%X%X%X%X%X%X%X%X%X%X%X%X%X%X]./ !.!.E.^.^./././.oXOXOXOXOXOXOXOXOXOX",
"^.^.^.^.^.^.^.^.^.^.^.^.). .q.%X%X%X%X%X%X%X%X%X%X%X%X%X%X%X%X%X%X%X%X%X%X%X%X%X%X%X%X%X@X] oXOXOX$XOX$XOXOXOXOXOX$XOXOXOXOXOXOX",
"^.^.^.^.^.^.^.^.^.^.^.^.^.o.n.M.3.$.b.D.q.%X%X%X%X%X%X%X%X%X%X%X%X%X%X%X%X%X%X%X%X%X%X%X%X9 OXOXOXXXXXXXOXOX$XOXV.B.XXOXOXOXOXOX",
"^.!.^.^.!.^.!.!.!.!.!.E.!./ {.@X.   ; %X@X%X%X%X%X%X%X%X%X%X%X%X%X%X%X%X%X%X%X%X%X%X%X%X%X[  XOXOXOXOXXX$X.X:.{ >.N..XOXOXOXOXOX",
"!.!.!.^.^.^.^./././././.OX#.q.%XH., @X%X%X%X%X%X%X%X%X%X%X%X%X%X%X%X%X%X%X%X%X%X%X%X%X%X%X]  XOXOXOXOX$XN.5 8..X$XOXOXOXOXOXOXOX",
"OXOXOXOXOXOXOXOXOXOXOXOX$XV.[ %X@Xb.@X%X%X%X%X%X%X%X%X%X%X%X%X%X%X%X%X%X%X%X%X%X%X%X%X%X%X( W.OXOXOX$XB.9 oX$XOX.XOX$X X XOXOXOX",
"OXOXOXOXOXOXOXOXOXOXOXOXoX$X4 _.%X%X%X%X%X%X%X%X%X%X%X%X%X%X%X%X%X%X%X%X%X%X%X%X%X%X%X%X%X$.v.$XOXOXOXO.W.$XXXOX$XXX:.:. XOXOXOX",
"OXOXOXOXOXOXOXOXOXOXOXOX X%X( : ].%X%X%X%X%X%X%X%X%X%X%X%X%X%X%X%X%X%X%X%X%X%X%X%X%X%X%X%XD.{ $XOXOXOX#. XOXOX$XB.1 v.OX$XOXOXOX",
"OXOXOXOXOXOXOXOXXXXXOXXX$X<.} {.H.%X%X%X@X3.%X%X%X].%X%X%X%X%X%X%X%X%X%X%X%X%X%X%X%X%X%X%X%X5 /.OXOX$X<.8.$X.XOX3 U.$XOXOXOXOXOX",
"OXOXOXOXOXOXoX$X%X$X$X$X:.5 %X%X%X[.}.%XN.$.%X@X%X} G.%X%X%X%X%X%X%X%X%X%XN.4 _ F.%X%X%X%X%XO.m.$XOXOXOX{ V.$XOX5 OXOXOXOXOXOXOX",
"OXOXOXOXOXOXOXV.#.O.o.2 } %X%X%X@X% c =., _.%X%X%X$.`.%X%X%X%X%X%X%X%Xq.4 1.1 a t 6.%X%X%X%Xq.>.$X.XOXOX X{ OX$X:.#.$XOXOXOXOXOX",
"OXOXOXOXXX$X8.+ %.D.D._.%X%X%X%X= s B X 6.%X%X%X_.: Z.w.w.r.r.w.5.@.@ 8 @X%XK.r J w M.%X%X%XH...$XoXOX$Xv.&.OXOXOX] U.$XOXOXOXOX",
"OXOXOXOXOX$X; %.%X%X%X%X%X%X%X; O ` } F.%X%X%X%X5 q l p p i p p k M D c @X%X%X' S Z ` %X%X%XK.x !.4.&.O.&. XOX X$X&.m.OXOXOXOXOX",
"OXOXOXOXOX$X*.> K.%X%X%X%X%X4 ; %X%X%X%X%X%X%X3.w J H H H H H H H H C # @X%X%X7.k z A.%X%X%X5.y ! {.W. X%X$X$X%XV.5 OXOXOXOXOXOX",
"OXOXOXOXOX$Xc.d # ..4.0.S.0 - M.%X%X%X%X%X%XA.o F F D F F F F D F N + H.%X%X%XA.e & H.@X%X@X& A u.%XOX|.>.<.<.O.5 U.$XOXOXOXOXOX",
"OXOXOXOXOX.X$Xd.D M k j i j O 1.@X@X%X%X%XK.$ D F F F F F F F D F N > A.@XK.7.* S t 7 2.1.2 n ! OXOXOXOXm.8.8.B.OXOXOXOXOXOXOXOX",
"OXOXOXOXOXOX.X%X!.! K F F H N g v v h b _ # C H F F F F F F F F F H l # f r p S F D k w r T j.%XOXOXOXOXOXOX$XOXOXOXOXOXOXOXOXOX",
"OXOXOXOXOXOXOXoX$X%X/.a.Q U H F A D D Z B F F F F F F F F F F F F F F D D F F D F L R s.Q.$X$XXXOXOXOXOXOXXXXXOXOXOXOXOXOXOXOXOX",
"OXOXOXOXOXOXOXOXOXoXOX$X%XXX^.k.i.Q E I L G F F F D F D D D F D F G P I Y W ^ h.R.oX$X%X$XOXXXOXOXOXOXOXOXoXOXOXOXOXOXOXOXOXOXOX",
"OXOXOXOXOXOXOXOXOXOXOX.X.XOX$X$X%X%X$XOX.X/.!.R.x.l.l.k.l.z.x.x.!.^..XOX$X%X%X$X$XOXOXoXOXOXOXOXOXOXOXOXOXOXOXOXOXOXOXOXOXOXOXOX",
"OXOXOXOXOXOXOXOXOXOXOXOXOXOXoXoXoXoX.XOXOXOX$X$X$X$X$X%X$X$X$X$X$XOXOXOXOXXXoXoX.XOXOXOXOXOXOXOXOXOXOXOXOXOXOXOXOXOXOXOXOXOXOXOX",
"OXOXOXOXOXOXOXOXOXOXOXOXOXOXOXOXOXOXOXOXOX.XOXoXOXoXoXOX.XoXOXoXOXoXOXOXOXXXOXOXOXOXOXOXOXOXOXOXOXOXOXOXOXOXOXOXOXOXOXOXOXOXOXOX",
"OXOXOXOXOXOXOXOXOXOXOXOXOXOXOXOXOXOXOXOXOXOXOXOXOXOXOXOXOXOXOXOXOXOXOXOXOXOXOXOXXXOXOXOXOXOXOXOXOXOXOXOXOXOXOXOXOXOXOXOXOXOXOXOX",
"OXOXOXOXOXOXOXOXOXOXOXoXOXOXOXOXOXOXOXOXOXOXOXOXOXOXOXOXOXOXOXOXOXOXOXOXOXOXOXOXOXOXOXOXOXOXOXOXOXOXOXOXOXOXOXOXOXOXOXOXOXOXOXOX",
"OXOXOXOXOXOXOXOXOXOXOXOXOXOXOXOXOXOXOXOXOXOXOXOXOXOXOXOXOXOXOXOXOXOXOXOXOXOXOXOXOXOXOXOXOXOXOXOXOXOXOXOXOXOXOXOXOXOXOXOXOXOXoXOX",
"OXOXOXOXOXOXOXOXOXOXOXOXOXOXOXOXOXOXOXOXOXOXOXOXOXOXOXOXOXOXOXOXOXOXOXOXOXOXOXOXOXOXOXOXOXOXOXoXOXOXOXOXOXOXOXOXOXOXOXOXOXOXOXOX",
"OXOXOXOXOXOXOXOXOXOXOXOXOXOXXXOXOXOXOXOXOXOXOXOXOXOXOXXXOXOXOXOXOXOXOXOXOXOXOXOXOXOXOXOXOXOXOXOXOXOXOXOXOXOXOXOXOXOXOXOXOXOXOXOX",
"OXOXOXOXOXOXOXOXOXOXOXOXOXOXOXOXOXOXOXOXOXOXOXOXOXOXOXOXOXOXOXOXXXOXOXOXOXOXOXOXOXOXOXOXOXOXOXOXOXOXOXOXOXOXOXOXOXOXOXOXOXOXOXOX",
"OXOXOXOXOXOXOXXXOXOXOXOXOXOXOXOXXXOXOXOXOXOXOXoXOXOXOXOXOXOXOXOXOXOXOXOXOXOXOXOXOXOXOXOXOXOXOXOXOXOXOXoXOXOXOXOXOXOXOXOXOXOXOXOX",
"OXOXOXOXOXOXOXOXOXOXOXOXOXOXOXXXOXOXOXOXOXOXOXOXOXXXOXOXOXOXOXOXOXOXOXOXOXOXOXOXOXOXOXOXOXOXOXOXOXOXOXOXOXOXOXOXOXOXOXOXOXOXOXXX",
"OXOXOXOXOXOXOXOXOXOXOXOXOXOXOXOXOXOXOXOXOXOXOXOXOXOXOXOXOXOXOXOXOXOXOXOXOXOXOXOXOXOXOXXXOXOXOXOXOXOXOXOXOXOXOXOXOXOXOXOXOXOXOXOX",
"OXOXoXOXOXOXOXOXOXOXOXOXOXOXOXOXOXOXOXOXOXOXOXOXOXOXOXOXOXOXOXOXOXOXOXOXOXOXOXOXOXOXOXOXOXOXOXOXOXOXOXOXOXOXXXOXOXOXOXOXOXOXOXOX",
"OXOXOXOXOXOXOXOXOXOXOXOXOXOXOXOXOXOXOXOXOXOXOXOXOXOXOXOXOXOXOXOXOXOXOXOXOXOXOXOXOXOXOXOXOXOXOXOXOXOXOXOXOXOXOXOXOXOXOXOXOXOXOXOX",
"OXOXOXOXOXOXOXOXOXOXOXOXOXOXOXOXOXOXOXOXOXOXOXOXOXOXOXOXOXOXOXOXOXOXOXOXOXOXOXOXOXOXOXOXOXOXOXOXOXOXOXOXOXOXOXOXOXOXOXOXOXOXOXOX",
"OXOXOXOXOXOXOXOXOXOXOXOXOXOXOXOXOXOXOXOXOXOXOXOXOXOXOXOXOXOXOXOXOXOXOXOXOXOXOXOXOXOXOXOXOXOXOXOXOXOXOXOXOXOXOXOXOXoXOXOXOXOXOXOX",
"OXOXOXOXOXOXOXOXOXOXOXOXOXOXOXOXOXXXOXOXOXOXOXOXOXOXOXOXOXOXOXOXXXOXOXOXOXOXOXoXOXOXOXOXOXOXOXOXOXOXOXOXOXOXOXOXOXOXOXOXOXOXOXOX",
"OXOXOXOXOXOXXXOXOXOXOXOXOXOXOXOXOXOXOXOXOXOXOXOXOXOXOXOXOXOXOXOXOXOXOXOXOXOXOXOXOXOXOXOXOXOXOXXXOXOXOXOXOXOXOXOXOXOXOXOXOXOXOXOX"
};
