/* XPM */
static char *minami[] = {
/* columns rows colors chars-per-pixel */
"64 64 199 2 ",
"   c #000002",
".  c #070609",
"X  c #080709",
"o  c #0B0A0C",
"O  c #100D0E",
"+  c #1D0A0D",
"@  c #0E0E11",
"#  c #100F10",
"$  c #131214",
"%  c #161618",
"&  c #1A1719",
"*  c #1C1A1B",
"=  c #230C0D",
"-  c #2F0F13",
";  c #221E1F",
":  c #1F1E20",
">  c #201F20",
",  c #232224",
"<  c #292626",
"1  c #272728",
"2  c #2C2728",
"3  c #2B2A2B",
"4  c #332D2D",
"5  c #2E2E31",
"6  c #312F30",
"7  c #353233",
"8  c #393434",
"9  c #3C3A3B",
"0  c #393738",
"q  c #403D3D",
"w  c #593A3B",
"e  c #762C31",
"r  c #6A3336",
"t  c #68272B",
"y  c #3F3F40",
"u  c #433F40",
"i  c #434243",
"p  c #4B4444",
"a  c #464548",
"s  c #4D4748",
"d  c #4A4A4B",
"f  c #4E4846",
"g  c #534B4B",
"h  c #514747",
"j  c #4F4F50",
"k  c #564F50",
"l  c #545455",
"z  c #5B5252",
"x  c #5C5B5C",
"c  c #575758",
"v  c #6F4F50",
"b  c #635B5A",
"n  c #6A5D5C",
"m  c #645756",
"M  c #705958",
"N  c #69605F",
"B  c #5F5F60",
"V  c #646465",
"C  c #6D6363",
"Z  c #6C6B6B",
"A  c #676769",
"S  c #756B6B",
"D  c #7B6E6E",
"F  c #756967",
"G  c #747374",
"H  c #7A7373",
"J  c #7A7A7B",
"K  c #873036",
"L  c #9B353B",
"P  c #99373C",
"I  c #A1373C",
"U  c #993A40",
"Y  c #AB3A41",
"T  c #9A4A4F",
"R  c #9A5A5B",
"E  c #B5454C",
"W  c #B6555B",
"Q  c #A75B60",
"!  c #80706F",
"~  c #847574",
"^  c #857C7A",
"/  c #8B7D7C",
"(  c #8A7876",
")  c #967B78",
"_  c #AB6F73",
"`  c #B26D70",
"'  c #C54149",
"]  c #C54149",
"[  c #D4454F",
"{  c #DA464E",
"}  c #E54A53",
"|  c #EE4B56",
" . c #E24751",
".. c #F04B56",
"X. c #8D807F",
"o. c #9E817D",
"O. c #97807F",
"+. c #848283",
"@. c #8E8180",
"#. c #8C8B8B",
"$. c #878788",
"%. c #928C8C",
"&. c #9C8D8B",
"*. c #958786",
"=. c #9A908D",
"-. c #8F8F90",
";. c #918F91",
":. c #8F9091",
">. c #949394",
",. c #9B9595",
"<. c #979798",
"1. c #9B9B9B",
"2. c #A38E8C",
"3. c #A68183",
"4. c #B58E8F",
"5. c #A7938F",
"6. c #A69694",
"7. c #AB9693",
"8. c #AB9A96",
"9. c #AD9D9A",
"0. c #A59B99",
"q. c #B39E9C",
"w. c #B89996",
"e. c #AFA29F",
"r. c #B2A29E",
"t. c #9F9FA0",
"y. c #A09EA0",
"u. c #A2A2A3",
"i. c #AAAAAB",
"p. c #A7A6A8",
"a. c #B5A4A2",
"s. c #BBA6A3",
"d. c #BCA9A6",
"f. c #BDABAA",
"g. c #B7A9A3",
"h. c #AFAFB0",
"j. c #B4B4B4",
"k. c #BCBABB",
"l. c #B9B1B0",
"z. c #C2AEAB",
"x. c #CAAFAD",
"c. c #C3B1AE",
"v. c #CBB1AE",
"b. c #D7B1AB",
"n. c #DAB1A9",
"m. c #C3B4B2",
"M. c #CCB6B2",
"N. c #CBBAB6",
"B. c #CDBDBB",
"V. c #D1B6B2",
"C. c #D3B9B6",
"Z. c #D4BEBB",
"A. c #D9BDB9",
"S. c #DEB8B0",
"D. c #D5C1BE",
"F. c #DCC2BE",
"G. c #E3C2BD",
"H. c #EAC5BF",
"J. c #C4C4C4",
"K. c #CCCCCC",
"L. c #CCC6C6",
"P. c #DAC6C2",
"I. c #DECAC5",
"U. c #D3C7C6",
"Y. c #D1CFD0",
"T. c #D2D2D3",
"R. c #D9D8D6",
"E. c #DDDDDD",
"W. c #E2C6C2",
"Q. c #EACBC6",
"!. c #E2CECB",
"~. c #EDCECA",
"^. c #E6C9C4",
"/. c #F0CFCA",
"(. c #E6D1CD",
"). c #EBD1CD",
"_. c #F3D2CD",
"`. c #EBD5D1",
"'. c #EFD9D4",
"]. c #E1DEDD",
"[. c #E6D9D6",
"{. c #F5D5D1",
"}. c #F4D9D5",
"|. c #F8DBD7",
" X c #F5DCD9",
".X c #F9DED9",
"XX c #FAE1DC",
"oX c #E4E4E4",
"OX c #E7E7E8",
"+X c #ECECEC",
"@X c #FBE6E2",
"#X c #F4E8E6",
"$X c #FBE8E4",
"%X c #F8F0ED",
"&X c #EFEFF0",
"*X c #F3F4F4",
"=X c #F7F7F8",
"-X c #FFFFFF",
";X c #F5F8F8",
/* pixels */
"-X-X-X-X-X-X-X-X-X-X-X-X-X-X-X-X-X-X-X-X-X-X-X-X-X-X-X-X-X-X-X-X-X-X-X-X-X-X-X-X-X-X-X-X-X-X-X-X-X-X-X-X-X-X-X-X-X-X-X-X-X-X-X-X",
"-X-X-X-X-X-X-X-X-X-X-X-X-X-X-X-X-X-X-X-X-X-X-X-X-X-X-X-X-X-X-X-X-X-X-X-X-X-X-X-X-X-X-X-X-X-X-X-X-X-X-X-X-X-X-X-X-X-X-X-X-X-X-X-X",
"-X-X-X-X-X-X-X-X-X-X-X-X-X-X-X-X-X-X-X-X-X-X-X-X-X-X-X-X-X-X-X-X-X-X-X-X-X-X-X-X-X-X-X-X-X-X-X-X-X-X-X-X-X-X-X-X-X-X-X-X-X-X-X-X",
"-X-X-X-X-X-X-X-X-X-X-X-X-X-X-X-X-X-X-X-X-X-X-X-X-X-X-X-X-X-X-X-X-X-X-X-X-X-X-X-X-X-X-X-X-X-X-X-X-X-X-X-X-X-X-X-X-X-X-X-X-X-X-X-X",
"-X-X-X-X-X-X-X-X-X-X-X-X-X-X-X-X-X-X-X-X-X-X-X-X-X-X-X-X-X-X-X-X-X-X-X-X-X-X-X-X-X-X-X-X-X-X-X-X-X-X-X-X-X-X-X-X-X-X-X-X-X-X-X-X",
"-X-X-X-X-X-X-X-X-X-X-X-X-X-X-X-X-X-X-X-X-X-X-X-X-X-X-X-X-X-X-X-X-X-X-X-X-X-X-X-X-X-X-X-X-X-X-X-X-X-X-X-X-X-X-X-X-X-X-X-X-X-X-X-X",
"-X-X-X-X-X-X-X-X-X-X-X-X-X-X-X-X-X-X-X-X-X-X-X-X-X-X-X-X-X-X-X-X-X-X-X-X-X-X-X-X-X-X-X-X-X-X-X-X-X-X-X-X-X-X-X-X-X-X-X-X-X-X-X-X",
"-X-X-X-X-X-X-X-X-X-X-X-X-X-X-X-X-X-X-X-X-X-X-X-X-X-X-X-X-X-X-X-X-X-X-X-X-X-X-X-X-X-X-X-X-X-X-X-X-X-X-X-X-X-X-X-X-X-X-X-X-X-X-X-X",
"-X-X-X-X-X-X-X-X-X-X-X-X-X-X-X-X-X-X-X-X-X-X-X-X-X-X-X-X-X-X-X-X-X-X-X-X-X-X-X-X-X-X-X-X-X-X-X-X-X-X-X-X-X-X-X-X-X-X-X-X-X-X-X-X",
"-X-X-X-X-X-X-X-X-X-X-X-X-X-X-X-X-X-X-X-X-X-X-X-X-X-X-X-X-X-X-X-X*XoXR.R.].oX+X+X*X-X-X-X-X-X-X-X-X-X-X-X-X-X-X-X-X-X-X-X-X-X-X-X",
"-X-X-X-X-X-X-X-X-X-X-X-X-X-X-X-X-X-X-X-X-X-X-X-X-X-X-X-X*XK.#.V 0 , % * * , 2 2 a x +.j.R.-X-X-X-X-X-X-X-X-X-X-X-X-X-X-X-X-X-X-X",
"-X-X-X-X-X-X-X-X-X-X-X-X-X-X-X-X-X-X-X-X-X-X-X-X-X-X*Xi.l $ . . . . . . . . . . . . . . , Z Y.-X-X-X-X-X-X-X-X-X-X-X-X-X-X-X-X-X",
"-X-X-X-X-X-X-X-X-X-X-X-X-X-X-X-X-X-X-X-X-X-X-X-X-XJ.d o . . . . . . . . . . . . . . . . . . * >.*X-X-X-X-X-X-X-X-X-X-X-X-X-X-X-X",
"-X-X-X-X-X-X-X-X-X-X-X-X-X-X-X-X-X-X-X-X-X-X-X=Xu.: . . . . . . . . . . . . . . . . . . . . . . d K.-X-X-X-X-X-X-X-X-X-X-X-X-X-X",
"-X-X-X-X-X-X-X-X-X-X-X-X-X-X-X-X-X-X-X-X-X-X+XJ . . . . . . . . . . . . . . . . . . . . . . . . . , k.-X-X-X-X-X-X-X-X-X-X-X-X-X",
"-X-X-X-X-X-X-X-X-X-X-X-X-X-X-X-X-X-X-X-X-XoXl . . . . . . . . . . . . . . . . . . . . . . . . . . . 1 R.-X-X-X-X-X-X-X-X-X-X-X-X",
"-X-X-X-X-X-X-X-X-X-X-X-X-X-X-X-X-X-X-X-XOXx . . . . . . . . . . . . . . . . . . . . . . . . . . . . . 0 R.-X-X-X-X-X-X-X-X-X-X-X",
"-X-X-X-X-X-X-X-X-X-X-X-X-X-X-X-X-X-X-XoXl . . . . . . . . . . . . . . . . . . . . . . . . . . . . . . . x &X-X-X-X-X-X-X-X-X-X-X",
"-X-X-X-X-X-X-X-X-X-X-X-X-X-X-X-X-X-X+XB . . . . . . . . . . . . . . . . . . . . . . . . . . . . . . . . . 1.-X-X-X-X-X-X-X-X-X-X",
"-X-X-X-X-X-X-X-X-X-X-X-X-X-X-X-X-X-X+.. . . . . . . . . . . . . . . . . . . . . . . . . . . . . . . . . . y +X-X-X-X-X-X-X-X-X-X",
"-X-X-X-X-X-X-X-X-X-X-X-X-X-X-X-X-Xj.o . . . . . . . . . . . . . . . . . . . . . . . . . . . . . . . . . . . j.-X-X-X-X-X-X-X-X-X",
"-X-X-X-X-X-X-X-X-X-X-X-X-X-X-X-X+X0 . . . . . . . . . . . . . . . . . . . . . . . . . . . . . . . . . . . . G -X-X-X-X-X-X-X-X-X",
"-X-X-X-X-X-X-X-X-X-X-X-X-X-X-X-Xu.. . . . . . . . . . . . . . . . . . . . . . . . . . . . . . . . . . . . . 2 oX-X-X-X-X-X-X-X-X",
"-X-X-X-X-X-X-X-X-X-X-X-X-X-X-X*Xa . . . . . . . . . . . . . . . . . . . . . . . . . . . . . . . . . . . . . . i.-X-X-X-X-X-X-X-X",
"-X-X-X-X-X-X-X-X-X-X-X-X-X-X-XL.$ . . . . . . . . . . . . . . . . . . . . . . . . . . . . . . . . . . . . . . G -X-X-X-X-X-X-X-X",
"-X-X-X-X-X-X-X-X-X-X-X-X-X-X-X-.. . . . . . . . . . . . . . . . . . . . . . . . . . . . . . . . . . . . . . . j -X-X-X-X-X-X-X-X",
"-X-X-X-X-X-X-X-X-X-X-X-X-X-X-Xx . . . . . . . . . o 8 o . . . o . . . . . . . . . . . . . . . . . . . . . . . 2 +X-X-X-X-X-X-X-X",
"-X-X-X-X-X-X-X-X-X-X-X-X-X-X*Xy . . . . . . . . . 4 m . . . O 8 . . . . . . . . . . . . . . . . . . . . . . . , R.-X-X-X-X-X-X-X",
"-X-X-X-X-X-X-X-X-X-X-X-X-X-X&X0 . . . . $ o . . . m m . . . 8 u . . . . , ; . . . . . . . . . . . . . . . . . $ R.-X-X-X-X-X-X-X",
"-X-X-X-X-X-X-X-X-X-X-X-X-X-X&X0 . . . . ; O . . O D N o . . q 8 . . . O d o . . . . . . . . . . . . . . . . . o K.-X-X-X-X-X-X-X",
"-X-X-X-X-X-X-X-X-X-X-X-X-X-X=Xd . . . . * , . . o g D O . . q 8 . . . , 8 . . . . . . . . . . . . . . . . . . % R.-X-X-X-X-X-X-X",
"-X-X-X-X-X-X-X-X-X-X-X-X-X-X-XA . . . . . 2 . . o p 5.g . . q m o . . * $ . . . . . . . . . . . . . . . . . . , oX-X-X-X-X-X-X-X",
"-X-X-X-X-X-X-X-X-X-X-X-X-X-X-X1.. . . . . 2 8 . . 0 7.r.p . , ( q X . % 4 . . . . . . . . . . . . . . . . . . 0 *X-X-X-X-X-X-X-X",
"-X-X-X-X-X-X-X-X-X-X-X-X-X-X-XR.$ . . & 7 O 6 A 0 2 ( G.A.! ; n ^ 2 . O 8 o . o . . . . . . . . . . . . . . . d =X-X-X-X-X-X-X-X",
"-X-X-X-X-X-X-X-X-X-X-X-X-X-X-X*Xd . . < 8.8 p.oX<.f C.{._._.V.8.n x i.J , * . . . . . . . . . . . . . . . . . 0 &X-X-X-X-X-X-X-X",
"-X-X-X-X-X-X-X-X-X-X-X-X-X-X-X-X1.. . o &.*.oX1.K.c 7.{._._._./.H R.+Xu.d , & . o . . . . . . . . . . . . . . * R.-X-X-X-X-X-X-X",
"-X-X-X-X-X-X-X-X-X-X-X-X-X-X-X-XY.$ . . m #XR.Z *X#.5._._._./.).].;X+.i.:.8 8.z , o . . . . . . . . . . . . . . i.-X-X-X-X-X-X-X",
"-X-X-X-X-X-X-X-X-X-X-X-X-X-X-X-XR.% . . 2 (.E.d V a r.{._._._._.%X+Xa K.j.8 G.Q.N , o . . . . . . . . . . . . . 0 R.-X-X-X-X-X-X",
"-X-X-X-X-X-X-X-X-X-X-X-X-X-X-X-XJ.o . . o r.#XZ ; g G.{./._._._.@XOX0 d 0 N _.|.c.; o . . . . . . . . . . . . . . l *X-X-X-X-X-X",
"-X-X-X-X-X-X-X-X-X-X-X-X-X-X-X-X:.. . . . &.XXF.8.C.{._._._._._.|.%XJ 2 p z.|.XX).2 . . . . . . . . . . . . . . . @ i.-X-X-X-X-X",
"-X-X-X-X-X-X-X-X-X-X-X-X-X-X-X*Xd . . . . D _._._._.G.W.|._._./._.|.I.2.x.{.XXXX`.8 . . . . . . . . . . . . . . . . d +X-X-X-X-X",
"-X-X-X-X-X-X-X-X-X-X-X-X-X-X-Xj.o . . . . n _._._./.7.A._._._._._._.).|.{.|.XXXXP.> . . . . . . . . . . . . . . . . o i.-X-X-X-X",
"-X-X-X-X-X-X-X-X-X-X-X-X-X-X*Xc . . . . . n _._._._.5.V._._._._._._._._.{..XXX@X2.. . . . . . . . . . . . . . . . . . G -X-X-X-X",
"-X-X-X-X-X-X-X-X-X-X-X-X-X-XK.% . . . . . n _._._._.V.F._.~._._._._._._.{.XXXX'.p . . . . . . . . . . . . . . . . . . V -X-X-X-X",
"-X-X-X-X-X-X-X-X-X-X-X-X-X-X<.. . X $ 0 ~ &.F._._._.C.v.M.b./.Q.2.w.M.).|.XX@X9.o . o . . . . . . . . . . . . . . . . J -X-X-X-X",
"-X-X-X-X-X-X-X-X-X-X-X-X-X;XJ o 8 A r.`.|.N d._._._._.Q.~._._.G.^ I.c.8.c.!.'.z . . o . . . . . . . . . . . . . . . . t.-X-X-X-X",
"-X-X-X-X-X-X-X-X-X-XOXK.k.f.a.c.~.XXXX(.F . h W._._._._._._././.8.c.XX`.c.8.*.2 . . . . . . . . . . . . . . . . . . o j.-X-X-X-X",
"-X-X-X-X-X-X-X*XK.N.m.U.(.|.XXXXXXN.^ 2 . . . ~ _._._._._._.{./._.d.c.).@XXX).z.^ m 8 . . . . . . . . . . . . o . . $ K.-X-X-X-X",
"-X-X-X-X-X-X].0.U.|.XXXXXX|.I.9.b , . . . . . O w._._._./.{././._._.D.,.a.F.XX@XXXXX(.^ $ . . . . . o . . . . $ . . 0 *X-X-X-X-X",
"-X-X-X-X-X].+.D.XX|.XXXXc.^ <., o # . . . . . . 6 A._._._./.{.{._.).C.f.N.=.^ g.|.XXXXXXr.< . . . . o . . . . $ . . >.-X-X-X-X-X",
"-X-X-X-X-XJ 8.@XXXXXXXXX(.@.1.l o # . . . * . . . ( {._.{.{./.C.s.w.v.|.XX@XX.o j F.XXXXXXD.8 . . . o . . . . % . a oX-X-X-X-X-X",
"-X-X-X-XJ.A |.XXXXXXXXXXXX|.*.G 2 o . . . * . . . % 2.!.G.r.( ) w.G._.|.XXm.D C F 0.|.XXXXXXm.1 . . . . . . . % 0 K.-X-X-X-X-X-X",
"-X-X-X-XZ 9.XXXXXX.XXXXXXXXX'.^ i.8 . . . , o . . . o 4 M o.w.n.Q._._.|.XXF f.XXXXXXXXXXXXXXXX0.. . o . . . . , i.-X-X-X-X-X-X-X",
"-X-X-XK.k !.XXXXXXXXXXXXXXXXm.#.=XY.8 . . # o . . . . o o.n.S.H._._._.XXXX*.D.XXXXXXXXXXXXXXXX'.p . . . . . . l +X-X-X-X-X-X-X-X",
"-X-X-X$.~ XXXXXXXXXXXX.XXXXXX.1.OX*XJ.8 . . = t + . X v b.H./.{._._.XX|.N.:.(.XXXXXXXXXXXXXXXXXX&.$ . . . . 2 J.-X-X-X-X-X-X-X-X",
"-X-X*Xb c.XXXXXX.XXXXXXXXXXXN.a c c A l X = I } K = 8 x._.{._.{.Q.C.&.g g F.XXXXXXXXXXXXXXXXXXXXF., . . . * #.].+X-X-X-X-X-X-X-X",
"-X-XK.b [.XXXXXXXXXXXXXXXX@Xa.+.oXT.p.#.^ T } } ..] e w ^ w.7.O.v r K L v `.XXXXXXXXXXXXXXXXXXXXXXm . . : d Z l a G T.-X-X-X-X-X",
"-X-X>.%.XXXXXXXXXXXXXXXXXXf.>.+X-X-X-X-X-XB.Q } ....} ] I L P Y ' } ....P 8.XXXXXXXXXXXXXX|.XXXXXX6.j h.K.+X+XoXk.B 2 1.;X-X-X-X",
"-X*XA D.XXXX|.XXXXXXXXXXXXy.1.-X-X-X-X-X-X-XR.` [ ....................[ R D.XXXX|.XXXXXXXXXXXX XXX!.G *X-X-X-X-X-X=X<., +.*X-X-X",
"-Xk.D XXXXXXXXXX|.XX|.|.XXd.,.-X-X-X-X-X-X;X-XOX3.E } ......} } { ] E r 2.|.|.XXXXXXXXXXXXXXXXXXXXXX^ K.-X-X-X-X-X-X-Xu., +.-X-X",
"-XH s.@XXX|.@XXX|._._.{.G.%.oX-X-X-X-X-X-X-X-X-X*Xa.Q W W W W _ 4.d.L.1.F ).).|.|.XXXXXXXXXXXX|..XXXr.>.-X-X-X-X-X-X-X-Xi.1 #.-X",
"R.A `..XXXXXXX|._._.~.7.%.R.-X-X-X-X-X-X-X-X-X-X-X-X+XR.].oX+X;X-X-X-X*XX.X.!._.{.|.XXXXXXXXXXXXXXXX(.C oX-X-X-X-X-X-X-X-Xi.1 1.",
"@.y.@X.X|.XXXX{._.~.^ >.+X-X-X-X-X-X-X-X-X-X-X-X-X-X-X-X-X-X-X-X-X-X-X-X*X%.m z.~._.{.|.XXXXXXXXXXXXXX@.u.-X-X-X-X-X-X-X-X-X#.1 ",
"H '.@X@X@X@X@X|.|.a.#.*X-X-X-X-X-X-X-X-X-X-X-X-X-X-X-X-X-X-X-X-X-X-X-X-X-X+XV p a.|.|.].XX@X@X@X@X@X@XU.%.-X-X-X-X-X-X-X-X-X+XB "
};
