/* XPM */
static char *nishi[] = {
/* columns rows colors chars-per-pixel */
"64 64 232 2 ",
"   c #3B0002",
".  c #350003",
"X  c #3B1C1F",
"o  c #3C1E20",
"O  c #392D27",
"+  c #3D372C",
"@  c #480707",
"#  c #590605",
"$  c #4B1B1B",
"%  c #5B1916",
"&  c #54150E",
"*  c #600000",
"=  c #640606",
"-  c #750908",
";  c #6D1516",
":  c #5A251A",
">  c #70221A",
",  c #501A22",
"<  c #453833",
"1  c #513C3A",
"2  c #522725",
"3  c #7C2428",
"4  c #692D2A",
"5  c #484336",
"6  c #4D4535",
"7  c #67423C",
"8  c #74423E",
"9  c #743D41",
"0  c #564C47",
"q  c #585647",
"w  c #54524E",
"e  c #774746",
"r  c #66584D",
"t  c #665B56",
"y  c #755755",
"u  c #6D4B46",
"i  c #586058",
"p  c #646458",
"a  c #77695B",
"s  c #6C6C63",
"d  c #716866",
"f  c #777568",
"g  c #797977",
"h  c #890405",
"j  c #960203",
"k  c #9B0103",
"l  c #99060A",
"z  c #97140D",
"x  c #891214",
"c  c #981718",
"v  c #8B0F11",
"b  c #A50808",
"n  c #B40000",
"m  c #BE0102",
"M  c #B90A0B",
"N  c #A7110B",
"B  c #A61619",
"V  c #B41717",
"C  c #AF0C11",
"Z  c #A9241F",
"A  c #AA1C21",
"S  c #992723",
"D  c #873B3B",
"F  c #9C3A3C",
"G  c #8A2E2B",
"H  c #AC2827",
"J  c #B72826",
"K  c #B83326",
"L  c #B53431",
"P  c #B7373C",
"I  c #A83435",
"U  c #C10000",
"Y  c #CC0301",
"T  c #CB0C00",
"R  c #C7090C",
"E  c #D60603",
"W  c #CB170A",
"Q  c #D2130B",
"!  c #D71405",
"~  c #C00C10",
"^  c #CA1715",
"/  c #D71712",
"(  c #D20B10",
")  c #E9150D",
"_  c #EA0E09",
"`  c #D4211A",
"'  c #EB211B",
"]  c #C52424",
"[  c #D82A24",
"{  c #C4342C",
"}  c #D73636",
"|  c #CE3435",
" . c #984135",
".. c #883B43",
"X. c #B43D45",
"o. c #8A464B",
"O. c #9A4B49",
"+. c #994E51",
"@. c #875759",
"#. c #995351",
"$. c #A94748",
"%. c #BC4442",
"&. c #A15957",
"*. c #B75557",
"=. c #B05848",
"-. c #87615A",
";. c #B8775B",
":. c #925D61",
">. c #A95B61",
",. c #896664",
"<. c #996465",
"1. c #857B75",
"2. c #977A76",
"3. c #9F7A6D",
"4. c #B96766",
"5. c #AB777D",
"6. c #B87A7A",
"7. c #A8716A",
"8. c #C64B4D",
"9. c #D64D4B",
"0. c #D45858",
"q. c #D7504B",
"w. c #D3635D",
"e. c #CE6865",
"r. c #CA7673",
"t. c #D47E78",
"y. c #CC6E6E",
"u. c #E16665",
"i. c #7C817A",
"p. c #7F816E",
"a. c #88857C",
"s. c #96867D",
"d. c #A8827D",
"f. c #CA8F7B",
"g. c #B87C83",
"h. c #CC7F86",
"j. c #898B87",
"k. c #989889",
"l. c #8A9498",
"z. c #9D9D94",
"x. c #9B9593",
"c. c #968D88",
"v. c #AB8A89",
"b. c #A1958A",
"n. c #A99899",
"m. c #B39D9D",
"M. c #BB9D9A",
"N. c #B69692",
"B. c #B58C8C",
"V. c #9EA48C",
"C. c #A7A69B",
"Z. c #929DA5",
"A. c #AE9EA0",
"S. c #9AA1A2",
"D. c #ADABA3",
"F. c #A3A7A5",
"G. c #B7A9A7",
"H. c #A9B0A7",
"J. c #B9B4AD",
"K. c #A5ADB1",
"L. c #ABB4B1",
"P. c #B9B4B1",
"I. c #B5B7B6",
"U. c #BEACB3",
"Y. c #CA8887",
"T. c #C99A97",
"R. c #D48E92",
"E. c #E69595",
"W. c #D1A899",
"Q. c #C29BA4",
"!. c #C9A6A9",
"~. c #DAA7AD",
"^. c #C9B8B8",
"/. c #D6B9B8",
"(. c #CDB6AA",
"). c #E0B3B0",
"_. c #EAA9AE",
"`. c #BBC1BC",
"'. c #C5C3BF",
"]. c #CDC5BC",
"[. c #D6C5BF",
"{. c #E4C3A4",
"}. c #BFBFC1",
"|. c #CABCC0",
" X c #D5B6C0",
".X c #E1B8C0",
"XX c #BFC5C6",
"oX c #CBCBCC",
"OX c #CAC8C5",
"+X c #D2C5C4",
"@X c #D2CBC5",
"#X c #D6C8C9",
"$X c #CDD2CD",
"%X c #D3D2CE",
"&X c #D7D0CB",
"*X c #CDD3D7",
"=X c #D4D4D4",
"-X c #DFD5D2",
";X c #DCDDDC",
":X c #D7D8DB",
">X c #DAC5D0",
",X c #E2C9CA",
"<X c #E1D2CD",
"1X c #E3D6D5",
"2X c #E3DDDA",
"3X c #E6D8D4",
"4X c #EACFD6",
"5X c #DCE1DB",
"6X c #E4E2DC",
"7X c #E8E0DA",
"8X c #F2E3DF",
"9X c #DEDDE3",
"0X c #E3DFE2",
"qX c #DEE2E2",
"wX c #DFE8EE",
"eX c #E4E4E2",
"rX c #EAE5E4",
"tX c #ECEAE6",
"yX c #ECECEC",
"uX c #E7E7E9",
"iX c #F1ECE9",
"pX c #F1F0EE",
"aX c #EEF2F1",
"sX c #EEF1F8",
"dX c #F6F6F6",
"fX c #F8F6F5",
"gX c #F7F8F7",
"hX c #F9F8F7",
"jX c #F6F7F8",
"kX c #F7FAF9",
"lX c #FBFCFC",
"zX c #F8F7F8",
/* pixels */
"dXdXdXdXdXdXdXdXzXdXdXdXdXdXdXdXdXdXdXdXdXdXgXdXdXdXdXzXzXdXdXdXdXdXdXdXdXdXdXdXdXdXdXdXdXdXdXdXdXdXdXdXdXdXdXdXdXdXdXdXdXdXdXdX",
"dXdXdXdXdXdXdXdXdXdXzXdXdXdXdXgXdXdXdXdXdXzXdXdXdXdXdXdXdXdXdXdXdXdXdXdXgXdXdXdXdXdXdXdXdXdXdXdXdXdXdXfXdXdXdXdXdXdXdXdXdXdXdXdX",
"dXdXdXdXdXgXdXdXdXdXdXdXdXdXdXdXdXgXdXdXdXdXdXdXdXdXdXdXdXdXdXdXdXdXzXdXdXdXdXdXdXdXdXdXdXdXdXdXgXdXlXyX5XdXdXdXdXdXdXdXdXdXdXdX",
"dXdXdXdXdXdXdXdXdXdXdXdXdXdXdXdXdXdXdXdXdXdXdXdXdXdXdXdXdXdXgXdXdXdXdXdXdXzXdXdXdXdXdXdXdXgXdXdXdXkXpX-XpXgXdXdXdXdXdXdXdXgXdXdX",
"dXdXdXdXdXgXdXdXdXdXdXzXdXdXdXdXdXdXdXdXdXdXdXdXdXdXdXdXdXdXdXdXdXdXdXdXdXdXdXdXfXfXgXdXgXgXgXgXgXeX%XgXgXgXdXdXdXdXdXdXdXdXdXdX",
"dXdXdXdXdXdXdXzXdXdXdXdXzXdXdXdXdXdXdXzXdXdXdXdXzXdXdXgXdXdXdXdXdXdXdXdXdXdXdXdXfXfXgXdXdXgXlXpX$X'.pXgXdXgXdXdXkXdXdXdXdXdXdXdX",
"dXdXzXdXdXdXdXdXdXdXdXdXdXdXdXdXdXdXdXgXdXdXdXdXdXdXdXdXdXzXdXdXdXdXdXdXdXdXdXdXfXfXdXlXfXuX`.H.H.5XgXgXdXdXdXdXdXdXdXdXdXdXdXdX",
"dXdXdXdXdXdXdXdXdXdXdXdXdXgXdXdXdXdXdXdXdXdXgXdXdXdXdXdXdXdXdXdXdXdXdXdXkXlXdXkXfX).d.[.C.a.k.V.J.gXgXgXdXdXdXdXdXdXdXdXdXgXdXdX",
"dXdXdXdXdXgXdXdXdXdXdXdXdXdXdXdXdXdXdXdXdXdXdXdXgXdXdXdXdXdXdXdXdXdXkXlX3X#XyX=Xv.V A > p a.k.C.7XkXdXdXdXdXdXdXdXdXdXdXdXdXdXdX",
"dXdXdXdXdXdXdXdXdXzXdXdXdXdXdXzXdXdXdXdXdXgXdXdXdXdXdXdXdXdXdXdXdXlX[.*.>.5.,.g b.G > b.I.P.I.7XkXdXdXdXdXdXzXdXdXdXdXdXdXdXdXdX",
"dXdXzXdXdXdXdXdXdXdXdXdXdXdXdXdXdXdXgXdXdXdXdXdXdXdXdXdXzXlXdXfXdXeXr.&.o.- = a a.k.-XlXlXlXlXfXzXzXdXdXdXdXdXdXdXdXdXdXdXdXzXdX",
"zXdXdXdXdXdXdXdXdXdXdXgXdXdXdXdXdXdXdXdXdXdXdXdXdXdXdXlXuX@XlXfX-X&X<.x h v = a ;XlXlXdXdXdXdXdXdXzXdXgXdXdXdXdXdXdXdXdXdXdXdXdX",
"dXdXdXdXdXdXdXdXzXdXdXdXdXdXdXdXdXdXdXdXdXdXdXdXdXdXdXlX].C.W.8.y.<.-.I B # u yXlXdXdXdXdXdXdXdXdXdXdXdXdXdXdXdXdXkXdXdXdXdXdXdX",
"dXdXgXdXdXdXdXzXdXdXdXdXgXdXdXdXdXdXdXdXdXdXdXdXdXdXfXpX].).` W L M ~.-Xy 6 yXlXdXgXdXdXdXdXdXdXdXdXzXdXdXdXdXdXdXdXdXdXdXgXdXdX",
"dXdXdXdXdXdXgXdXdXdXdXdXdXdXdXdXdXdXdXdXdXdXdXgXdXdXgXdX<X9._ ' / Y H D.s %XlXdXdXdXdXdXdXdXdXdXdXdXdXdXdXdXdXdXdXdXdXdXdXdXdXdX",
"dXdXdXdXdXdXdXdXdXdXdXdXdXdXdXzXdXdXgXdXdXdXdXdXdXdXdXkXR.E ) ) ( M c y F.lXdXdXdXdXdXdXdXdXdXdXdXdXdXdXdXdXdXdXdXdXdXdXdXzXdXdX",
"dXdXgXdXdXdXdXdXdXdXdXdXdXdXdXdXdXdXdXdXdXgXdXdXdXdXzXaXw._ ) ! W N - ,.lXlXlXkXdXdXdXdXdXdXdXdXdXdXdXzXdXdXdXdXdXzXzXaXkXdXdXdX",
"zXdXdXdXdXdXzXdXdXzXyXdXdXdXdXdXdXdXdXdXdXdXdXdXdXdXfX:X_.) ) Q M l & 2X7XI.I.eXzXdXdXdXdXdXdXdXdXdXdXdXgXdXdXdXdXdXdXdXzXdXdXdX",
"dXdXdXdXdXdXdXdXdXkXqXyXzXdXdXdXdXdXdXdXzXdXdXdXdXzXuX:X4X} ( n l = 7 H.f z.K.=XlXdXdXdXdXdXdXdXdXdXdXdXdXdXdXdXdXdXdXdXdXdXdXgX",
"dXdXdXdXdXdXdXdXkXlX9XsXdXdXdXdXdXdXdXzXdXdXdXdXfXlX4X).uX4XR.B.y q 5 6 f L.%XdXdXdXdXdXdXzXzXdXdXdXdXdXdXdXdXdXdXdXdXdXdXdXdXdX",
"dXdXdXdXdXdXdXkXzXoX}.zXdXdXdXdXdXdXdXdXdXdXdXdXfXkXu.E 8..X9XXXk.0 + a D.eXzXzXdXdXdXdXdXdXdXdXdXdXdXdXzXdXdXdXdXdXdXdXdXzXdXdX",
"gXdXdXdXdXdXkX5XK.Z.}.zXdXdXdXdXdXdXdXdXdXdXdXdXfXpX} E Y V U.H.f C.7XtXzXzXzXdXdXdXdXdXdXdXdXdXdXzXdXdXdXdXzXdXdXdXzXdXdXdXdXdX",
"dXdXdXdXdXlXuXF.F.F.=XfXdXdXdXdXdXdXdXdXdXdXdXdXkXrX[ E ^ k n.x.a.lXkXkXdXdXdXdXdXdXdXdXdXdXdXdXdXdXdXdXdXdXdXdXdXdXdXdXdXdXdXdX",
"dXdXdXdXdXlXoXk.C.A.;XgXdXdXdXdXdXdXdXdXdXdXdXdXkXeX| U b D C.i 2XkXdXzXdXdXdXdXdXdXdXdXdXdXzXdXdXdXdXdXdXdXdXdXdXdXdXgXdXdXdXdX",
"dXdXdXdXdXlX'.k.N.v.yXfXdXdXdXdXdXdXdXgXdXdXdXdXgXuX~.$.@.J.p P.lXdXdXdXdXdXdXdXdXdXdXdXdXdXdXdXdXdXdXdXdXdXdXdXdXdXgXdXdXdXdXdX",
"dXdXdXdXdXlX&Xs.e.O.+XlXdXdXdXdXdXdXdXdXdXdXdXdXgXyX:X*XL.p.'.lXdXdXdXdXdXdXdXdXdXdXdXdXdXdXdXdXdXdXdXdXdXdXdXdXdXdXdXdXdXdXdXdX",
"dXgXdXdXdXlXyXs.S V 6.kXdXdXdXdXdXdXdXdXdXdXdXdXdXgX:XH.k.@XlXdXdXdXdXdXgXdXdXdXdXdXdXdXdXdXdXdXdXdXdXdXkXdXdXdXdXdXdXdXdXdXzXdX",
"dXdXfXdXdXdXlXP.x C 7.yXgXdXdXdXdXzXdXdXdXdXdXdXdXgXgXpXgXlXdXdXdXdXdXdXdXdXdXdXdXdXdXdXdXdXdXdXdXdXdXdXdXdXdXzXzXdXdXdXdXdXdXdX",
"dXdXdXdXdXdXdXkX+.O.].&XlXzXgXdXdXdXdXdXdXdXdXdXdXdXdXgXdXdXdXdXdXdXdXdXdXdXdXdXdXfXlXlXlXkXdXzXdXdXdXdXdXdXdXkXzXdXdXdXdXdXdXgX",
"dXdXgXdXdXdXdXlXJ.t.e.Y.f.W.tXlXdXdXdXdXdXdXdXdXdXdXdXdXdXdXdXdXdXdXdXdXdXdXdXdXdXlX1X/.0XkXkXdXdXdXdXdXdXdXzXaXdXdXdXdXdXdXdXdX",
"dXdXdXdXdXdXdXlX<X{ m P K ;.3XkXdXdXdXdXdXdXdXdXdXdXdXdXdXdXdXdXdXdXdXdXdXdXdXdXzXuX..5.).h.#XlXdXdXdXzXdXdXdXdXdXdXdXdXdXdXdXdX",
"dXdXdXdXdXdXdXlXrXc U J I  .7XlXdXdXdXdXdXdXdXdXdXdXdXdXdXdXdXdXdXdXdXdXdXdXdXdXlX/.O.E.[ B v.eXkXdXdXdXdXdXgXdXdXdXdXdXdXzXdXdX",
"dXdXdXdXdXdXdXdXlX<.A m A :.OXlXdXdXdXlXlXfXdXdXdXdXdXdXdXdXdXdXdXdXdXdXdXdXdXdXlX|.@.e.T { E.F !.lXdXzXdXdXdXdXdXdXdXdXdXdXdXdX",
"dXdXdXdXdXdXdXdXlXJ.-.%.F x.oXoXpXlXdX&XOXrXdXdXdXdXdXdXdXdXdXdXdXdXdXdXdXdXdXdXzXwX,.V W W ^ N u yXzXdXdXdXdXdXdXdXdXdXdXdXdXdX",
"dXdXdXdXdXdXdXdXlXdX@.#./.I.C.I.'.&X7X^.].#XrXlXlXdXdXdXdXdXdXdXfXdXzXdXdXdXdXdXzXzXj.H T ! ! K B.v.lXdXdXdXdXdXdXdXdXdXdXzXdXdX",
"dXdXdXdXdXdXdXdXdXlXM.= F ].m.2.|.#X~.0.q.q.0.f.-XtXpXkXlXzXfXdXdXdXdXdXdXdXdXdXzXzXN.A n L K K B.# ^.lXdXdXdXdXdXdXdXdXdXdXdXdX",
"dXdXdXdXdXdXdXdXdXdXlX9 & n.^.6.x 5.Y.9.^ E E T r._.[ 9.E.rXdXdXzXdXdXdXdXdXdXdXdXlX].H 4.&X<X(.4XG 4 lXlXlXdXdXdXdXdXdXdXdXdXdX",
"dXdXdXdXdXdXdXdXdXdX3X1.< f n.T.$.B b P | [ ` / [ } Y Y U 8.#XrXlXdXdXdXdXdXdXdXdXdXfXD P u.y.gXE.l , c.yXlXzXdXdXzXdXdXdXdXdXdX",
"dXdXdXdXdXdXdXdXdXlX3Xb.6 < p k.R.] m m R ( ( ( ~ ~ R M M k M.3XdXdXdXdXdXdXdXdXdXdXlXN.z m W q.] #.a.O c.eXdXdXdXdXdXdXdXdXdXdX",
"dXdXdXdXdXdXdXdXdXkXkX7XJ.a.p 0 -.x b C M ~ M C r.X.k k h 3 D.(.dXdXdXdXdXdXdXdXdXfXlX&.- N M K 6.Y.@.1 g I.0XzXdXdXdXdXdXdXdXzX",
"dXdXdXdXdXdXgXdXdXdXdXkXlXlXlXD.t 1 - h l l b k r.!.@.@.s.f 1.].zXdXdXdXdXdXdXdXdXkX1Xg.; j n r.sX$.= , y A.^.yXzXdXdXdXdXdXdXdX",
"dXdXdXdXdXdXdXdXdXdXdXdXdXdXdXlX7Xn.u @ % o...3 -.k.1.p i a.D.fXdXdXdXdXdXdXdXdXdXzX^.G.c.&.4.4.oX!.; : 3.5.G.=XkXdXdXdXdXdXdXdX",
"gXdXdXdXdXdXdXdXdXdXdXdXdXdXdXdXlXlXlXx.6 i i 0 0 f a.z.&XfXlXdXdXdXdXdXdXdXdXdXzXdXT.n.v.6.Y.-X*X:X:.: ;.-XrXyXzXdXdXdXdXdXdXzX",
"dXdXdXdXdXzXdXdXdXdXkXdXdXdXdXdXdXdXdXz.r 5 O 5 $XlXfXlXlXdXdXdXdXdXdXdXdXdXdXdXzXuXN.I.N.S h W.wX:X@.: 7.gXlXfXdXdXdXdXdXdXdXdX",
"dXdXdXdXdXdXdXdXdXdXdXdXdXdXdXkXgXgXF.i.j.s i OXlXdXdXdXaXdXdXdXdXdXdXdXzXdXdXdXzXuXM.M.{.=.S @X:XA.g.< T.lXdXdXdXdXdXdXdXdXdXdX",
"dXdXdXdXdXdXdXdXdXdXdXdXdXdXdXaXkXuXS.F.C.k.=XlXdXdXdXdXkXdXdXdXdXdXdXdXdXdXdXdXfXpX(.(.lXT.z #X X@.g u &XlXdXdXdXdXdXzXdXdXzXdX",
"dXzXgXdXdXdXdXzXzXdXdXdXdXdXdXdXkXpX`.L.`.6XlXgXdXdXdXdXdXzXdXdXdXdXdXdXdXdXdXdXfXdXzXzXlXT.N !.^.9 y 2.lXdXdXdXgXdXdXdXdXdXdXdX",
"dXdXdXdXdXdXdXdXdXdXdXdXdXdXdXdXdXgXpXtXgXfXdXgXdXdXdXdXdXdXdXdXdXdXdXdXdXdXdXdXdXfXdXdXlXR.z ^.Q.# & #XlXdXdXdXdXdXdXdXdXdXdXdX",
"dXdXdXdXdXdXdXdXdXdXdXdXdXzXdXdXzXdXkXkXzXdXdXdXdXdXdXdXdXdXdXdXdXdXdXdXdXdXdXdXdXdXdXdXlXQ.>.0X+.  e lXdXdXdXdXdXdXdXdXdXdXdXdX",
"dXdXdXdXdXdXdXgXdXdXdXdXdXdXdXdXdXdXdXdXdXdXdXdXdXdXdXzXdXdXzXdXdXdXdXdXdXdXdXdXdXdXdXkXpX|.wXQ.# . ,.lXdXdXdXdXdXdXdXdXdXdXdXdX",
"dXdXdXgXdXdXzXdXdXdXdXdXdXdXdXdXdXdXdXdXdXdXdXdXdXdXdXdXdXdXdXdXdXdXdXdXdXdXdXdXdXdXdXlX#X|. X4 X < /.lXdXdXdXdXdXdXdXdXdXdXdXdX",
"dXdXdXdXdXdXdXdXdXzXdXdXdXgXdXdXdXdXdXdXdXdXdXdXdXdXdXdXdXdXdXdXdXdXdXdXdXdXdXdXdXdXdXdX^.U.y , 0 3.8XlXdXdXdXdXdXdXdXdXdXdXdXdX",
"dXzXzXdXdXdXdXdXdXdXdXdXdXdXdXdXdXdXdXdXdXdXdXdXdXdXdXdXdXzXdXzXdXdXdXdXdXdXdXdXdXdXlX^.>.y d y 1XpXdXdXdXdXdXdXdXdXdXdXdXdXdXdX",
"dXdXdXdXdXdXdXdXzXdXdXdXdXdXzXdXdXdXgXdXdXdXzXdXdXdXdXdXdXdXdXdXdXdXdXdXdXdXdXdXdXdX>X*.h $ u :XlXfXdXdXdXdXdXdXdXdXdXdXdXdXdXdX",
"dXdXdXdXdXgXdXdXdXdXgXdXdXdXdXdXdXdXdXdXdXdXdXdXzXdXdXdXdXdXdXdXdXdXdXdXdXdXkXlXlX^.o.=   t ;XlXfXdXdXdXdXdXdXdXdXdXdXdXdXdXdXdX",
"dXdXdXdXdXdXdXdXdXdXdXdXdXdXdXdXzXdXdXdXdXdXdXdXdXdXdXdXdXdXdXdXdXdXzXzXlXzX9XU.@.@ $ c.I.lXlXdXfXdXdXdXdXdXdXdXdXdXdXdXdXdXdXdX",
"dXdXzXdXdXdXdXdXdXdXdXdXdXdXdXdXdXdXdXdXdXdXdXgXdXdXdXdXdXdXdXdXlXzXdXqXI.j.s w $ o *XlXlXfXdXdXdXdXdXdXzXdXdXdXdXdXdXdXdXdXdXdX",
"dXdXdXdXdXdXdXdXdXdXdXdXgXdXdXdXdXgXdXdXzXdXdXdXdXdXdXdXdXdXgXlX9XXXK.l.g g f t d =XlXdXdXzXdXdXdXzXdXdXdXdXdXdXdXfXdXdXdXdXdXdX",
"dXdXdXdXdXdXzXdXdXdXzXdXdXdXdXdXdXdXdXdXdXdXdXdXdXdXdXdXdXlXqXL.L.$XI.l.l.i.j.P.yXlXdXkXdXdXdXdXdXdXdXdXdXdXdXgXdXdXdXdXdXdXzXdX",
"dXdXdXdXgXdXdXdXdXdXdXdXdXzXdXdXdXdXdXzXdXdXdXdXdXdXdXdXkX-XH.oXgXlXfXuX:X=XyXlXdXdXdXdXdXdXdXdXdXdXdXdXdXdXdXdXdXdXdXzXdXdXdXdX",
"dXzXdXdXdXdXdXdXdXdXdXdXdXdXdXdXdXdXdXdXgXdXdXdXdXdXdXdXdXyXdXlXdXdXdXdXlXlXkXdXdXdXdXdXdXdXdXdXdXdXdXdXdXdXdXdXdXdXdXdXdXdXdXzX",
"dXdXdXdXdXgXdXdXdXdXdXdXdXdXgXdXdXdXdXdXdXdXdXdXdXgXdXdXdXkXdXdXdXdXdXdXdXdXdXdXdXdXdXdXdXgXdXdXgXdXdXdXdXdXdXdXdXdXdXdXdXdXdXdX",
"dXgXdXdXdXdXdXdXdXdXkXzXdXdXdXdXdXdXzXdXdXdXdXdXzXdXdXdXdXdXdXdXdXdXdXdXdXdXdXdXdXdXdXdXdXdXdXdXdXdXdXdXzXdXdXdXgXdXdXzXdXdXdXdX",
"dXdXdXdXdXdXdXdXdXzXaXzXdXdXdXdXdXdXdXdXdXdXdXdXdXdXdXdXdXdXdXdXdXdXdXdXdXdXdXdXdXdXdXdXzXdXdXdXdXzXdXdXdXdXdXdXdXdXdXdXdXdXdXdX"
};
